HIERARCHY
ROOT Hips
{
	OFFSET 0.00000 0.00000 0.00000
	CHANNELS 6 Xposition Yposition Zposition Zrotation Yrotation Xrotation 
	JOINT LHipJoint
	{
		OFFSET 0 0 0
		CHANNELS 3 Zrotation Yrotation Xrotation
		JOINT LeftHip
		{
			OFFSET 1.84395 -1.68683 0.74144
			CHANNELS 3 Zrotation Yrotation Xrotation
			JOINT LeftKnee
			{
				OFFSET 2.27037 -6.23779 0.00000
				CHANNELS 3 Zrotation Yrotation Xrotation
				JOINT LeftAnkle
				{
					OFFSET 2.56918 -7.05877 0.00000
					CHANNELS 3 Zrotation Yrotation Xrotation
					JOINT LeftToe
					{
						OFFSET 0.22276 -0.61202 1.71784
						CHANNELS 3 Zrotation Yrotation Xrotation
						End Site
						{
							OFFSET 0.00000 -0.00000 0.91613
						}
					}
				}
			}
		}
	}
	JOINT RHipJoint
	{
		OFFSET 0 0 0
		CHANNELS 3 Zrotation Yrotation Xrotation
		JOINT RightHip
		{
			OFFSET -1.76833 -1.68684 0.74144
			CHANNELS 3 Zrotation Yrotation Xrotation
			JOINT RightKnee
			{
				OFFSET -2.49360 -6.85110 0.00000
				CHANNELS 3 Zrotation Yrotation Xrotation
				JOINT RightAnkle
				{
					OFFSET -2.55538 -7.02085 0.00000
					CHANNELS 3 Zrotation Yrotation Xrotation
					JOINT RightToe
					{
						OFFSET -0.21516 -0.59115 1.68050
						CHANNELS 3 Zrotation Yrotation Xrotation
						End Site
						{
							OFFSET -0.00000 -0.00000 0.89604
						}
					}
				}
			}
		}
	}
	JOINT lowerback
	{
		OFFSET 0 0 0
		CHANNELS 3 Zrotation Yrotation Xrotation
		JOINT Chest
		{
			OFFSET 0.06382 1.72312 -0.19613
			CHANNELS 3 Zrotation Yrotation Xrotation
			JOINT Chest2
			{
				OFFSET -0.00055 1.73507 0.23859
				CHANNELS 3 Zrotation Yrotation Xrotation
				JOINT lowerneck
				{
					OFFSET 0 0 0
					CHANNELS 3 Zrotation Yrotation Xrotation
					JOINT Neck
					{
						OFFSET 0.03638 1.65562 0.09633
						CHANNELS 3 Zrotation Yrotation Xrotation
						JOINT Head
						{
							OFFSET 0.06388 1.62807 -0.32386
							CHANNELS 3 Zrotation Yrotation Xrotation
							End Site
							{
								OFFSET 0.00995 1.67644 -0.12021
							}
						}
					}
				}
				JOINT LeftCollar
				{
					OFFSET 0 0 0
					CHANNELS 3 Zrotation Yrotation Xrotation
					JOINT LeftShoulder
					{
						OFFSET 3.09648 1.42991 0.28122
CHANNELS 3 Zrotation Xrotation Yrotation
						JOINT LeftElbow
						{
OFFSET 0 -5.118780 -0.000000
CHANNELS 3 Zrotation Xrotation Yrotation
							JOINT LeftWrist
							{
OFFSET 0 -3.599710 0.000000
CHANNELS 3 Zrotation Xrotation Yrotation
								JOINT lhand
								{
									OFFSET 0 0 0
CHANNELS 3 Zrotation Xrotation Yrotation
									JOINT LFingers
									{
OFFSET 0 -0.628770 0.000000
CHANNELS 3 Zrotation Xrotation Yrotation
										End Site
										{
OFFSET 0 -0.506930 0.000000
										}
									}
								}
								JOINT LThumb
								{
OFFSET 0 0.000000 0.000000
CHANNELS 3 Zrotation Xrotation Yrotation
									End Site
									{
OFFSET 0 -0.514670 0.514670
									}
								}
							}
						}
					}
				}
				JOINT RightCollar
				{
					OFFSET 0 0 0
					CHANNELS 3 Zrotation Yrotation Xrotation
					JOINT RightShoulder
					{
						OFFSET -3.33565 1.14597 0.05047
CHANNELS 3 Zrotation Xrotation Yrotation
						JOINT RightElbow
						{
OFFSET 0 -5.490200 0.000000
CHANNELS 3 Zrotation Xrotation Yrotation
							JOINT RightWrist
							{
OFFSET 0 -3.206590 -0.000000
CHANNELS 3 Zrotation Xrotation Yrotation
								JOINT rhand
								{
									OFFSET 0 0 0
CHANNELS 3 Zrotation Xrotation Yrotation
									JOINT RFingers
									{
OFFSET 0 -0.691880 0.000000
CHANNELS 3 Zrotation Xrotation Yrotation
										End Site
										{
OFFSET 0 -0.557810 0.000000
										}
									}
								}
								JOINT RThumb
								{
OFFSET 0 0.000000 0.000000
CHANNELS 3 Zrotation Xrotation Yrotation
									End Site
									{
OFFSET 0 -0.566330 0.566330
									}
								}
							}
						}
					}
				}
			}
		}
	}
}
MOTION
Frames: 6
Frame Time: 0.008333333333333333
0.818600 17.447700 8.448700 -10.289800 -0.905900 8.486300 0.000000 0.000000 0.000000 -12.175600 -35.267600 17.920400 0.036500 -1.233400 -3.391100 -4.773400 38.315400 -32.934100 0.053700 1.494800 4.111500 0.000000 0.000000 0.000000 29.246500 24.547100 3.349700 -0.095500 -1.992500 5.485100 0.531800 -16.147000 -16.505100 -0.027500 1.070200 -2.942000 10.805600 -0.308300 -0.354200 -1.116000 0.210700 -12.780700 -7.309700 -1.256500 -13.998600 -9.911000 -12.430400 6.581800 13.672000 -19.637500 17.193900 4.923000 -9.712600 6.502800 -0.000000 0.000000 0.000000 3.899700 16.564000 0.146600 12.793900 -20.984400 2.379000 13.896900 21.234100 9.341700 0.000000 0.000000 0.000000 -7.125000 0.000000 0.000000 -9.331500 20.419800 -5.562700 -0.000000 0.000000 0.000000 8.087400 16.845700 -8.328600 -14.233900 -23.068100 -2.919100 15.577400 27.482300 33.984000 0.000000 0.000000 0.000000 7.125000 0.000000 -0.000000 51.551900 56.367200 -17.582500
0.821159 17.441487 8.466786 -10.343468 -0.954305 8.593106 0.000000 0.000000 0.000000 -12.693524 -36.179873 18.929116 0.045435 -1.374738 -3.780489 -4.963386 39.120138 -34.175134 0.086947 1.893955 5.212895 0.000000 0.000000 0.000000 29.236539 24.394413 3.389089 -0.084625 -1.875737 5.162270 0.511096 -16.039352 -16.604559 -0.032945 1.171400 -3.220445 6.555253 -0.517192 -2.670382 2.695426 -0.362371 -9.640416 -0.778332 -0.566892 -8.729723 -12.759099 -13.340182 -1.565423 12.024188 -19.738132 16.954373 4.143982 -9.580147 7.961571 0.000000 0.000000 0.000000 -4.281656 8.882310 10.839719 12.183724 -20.079118 2.165276 14.209142 29.691586 10.247853 0.000000 0.000000 0.000000 -7.125000 0.000000 0.000000 -9.083389 19.483542 -5.604056 0.000000 0.000000 0.000000 1.170190 10.025210 -6.944322 -13.435332 -21.921738 -2.613628 12.734643 27.735654 33.101425 0.000000 0.000000 0.000000 7.125000 0.000000 0.000000 48.187559 56.352724 -15.979290
0.824731 17.439660 8.490882 -10.405104 -1.034183 8.765169 0.000000 0.000000 0.000000 -13.191133 -37.021341 19.804946 0.050811 -1.454211 -3.999532 -4.970976 39.635093 -35.711490 0.136212 2.376698 6.547965 0.000000 0.000000 0.000000 29.295557 24.561764 3.594142 -0.070923 -1.717703 4.726085 0.393126 -15.860174 -17.975167 -0.007081 0.338652 -0.930736 6.698966 -0.451824 -2.913734 2.645921 -0.296341 -9.652962 -0.916607 -0.545224 -8.601207 -12.763588 -13.306755 -1.304810 12.266374 -19.721330 16.615509 4.248509 -9.575547 7.827701 0.000000 0.000000 0.000000 -4.115393 8.520335 12.765951 11.625129 -19.240096 1.977055 14.521217 30.652243 10.218709 0.000000 0.000000 0.000000 -7.125000 0.000000 0.000000 -8.863355 19.495971 -5.462408 0.000000 0.000000 0.000000 1.278206 10.087015 -7.727983 -13.263892 -21.672465 -2.550008 12.237557 28.238608 33.133488 0.000000 0.000000 0.000000 7.125000 0.000000 0.000000 47.787404 56.481160 -15.955916
0.824000 17.445974 8.531544 -10.397906 -1.008122 9.139064 0.000000 0.000000 0.000000 -13.482471 -37.705817 20.215054 0.055271 -1.517452 -4.173790 -5.055814 40.111953 -36.613971 0.166212 2.626136 7.239613 0.000000 0.000000 0.000000 29.200865 24.619417 3.623321 -0.055878 -1.524859 4.194349 0.471410 -16.181132 -17.486558 -0.018755 0.883151 -2.427367 6.672088 -0.419629 -3.666276 2.615354 -0.324434 -9.678286 -0.942538 -0.549503 -8.190805 -12.742574 -13.242734 -0.999460 12.492281 -19.674466 16.355800 4.351002 -9.557581 7.703917 0.000000 0.000000 0.000000 -4.020565 8.574416 13.515023 11.424557 -18.936170 1.911408 14.729361 30.526245 9.843653 0.000000 0.000000 0.000000 -7.125000 0.000000 0.000000 -8.724788 19.866618 -5.301939 0.000000 0.000000 0.000000 1.265445 10.023358 -8.499441 -12.910629 -21.156035 -2.420943 12.048976 28.252575 33.508665 0.000000 0.000000 0.000000 7.125000 0.000000 0.000000 48.008547 56.789924 -16.440209
0.835494 17.440142 8.550440 -11.150842 -0.827715 9.145855 0.000000 0.000000 0.000000 -12.655627 -37.609780 20.357748 0.061375 -1.598230 -4.396505 -5.150404 40.225815 -36.388797 0.150363 2.498338 6.884990 0.000000 0.000000 0.000000 30.081549 24.245354 3.795543 -0.045987 -1.383632 3.804956 0.444960 -16.043098 -17.600248 -0.016750 0.834309 -2.293080 7.532130 -0.425484 -3.652066 2.782648 -0.310594 -9.650961 -1.240646 -0.598892 -8.194400 -12.511342 -13.281119 -0.927215 12.336313 -19.713510 16.321741 4.270598 -9.577421 7.644668 0.000000 0.000000 0.000000 -3.825310 8.677675 13.571640 11.077952 -18.407486 1.800494 15.126498 29.667050 9.507810 0.000000 0.000000 0.000000 -7.125000 0.000000 0.000000 -8.450284 20.188147 -5.069797 0.000000 0.000000 0.000000 1.287302 9.952077 -9.367950 -12.691059 -20.832822 -2.342275 12.159365 28.386432 33.718381 0.000000 0.000000 0.000000 7.125000 0.000000 0.000000 48.323666 56.915728 -16.744091
0.842591 17.439203 8.563293 -11.170678 -0.827766 9.232275 0.000000 0.000000 0.000000 -12.601474 -37.557575 20.256161 0.060911 -1.592024 -4.379391 -5.129341 40.168550 -36.343724 0.139318 2.405295 6.627216 0.000000 0.000000 0.000000 30.079301 24.303951 3.893069 -0.041436 -1.313575 3.612030 0.459435 -16.155769 -17.610203 -0.018594 0.880448 -2.419964 7.564272 -0.411568 -3.611271 2.770805 -0.287207 -9.666226 -1.270872 -0.591717 -8.234525 -12.401142 -13.354042 -1.035662 12.163142 -19.791932 16.431860 4.179933 -9.612129 7.680612 0.000000 0.000000 0.000000 -3.718325 8.799206 13.924586 10.920671 -18.166609 1.751121 15.544034 29.566941 9.354244 0.000000 0.000000 0.000000 -7.125000 0.000000 0.000000 -8.155894 20.323062 -4.864453 0.000000 0.000000 0.000000 1.370394 9.963375 -10.277170 -12.590361 -20.684122 -2.306583 12.134225 28.907303 33.770317 0.000000 0.000000 0.000000 7.125000 0.000000 0.000000 48.356182 56.958076 -16.812082
